<svg width="20" height="20" viewBox="0 0 20 20" fill="none" xmlns="http://www.w3.org/2000/svg">
<circle cx="10" cy="10" r="10" fill="white"/>
<path d="M11.591 10.4853L14.3127 13.207C14.7134 13.6076 14.682 14.2886 14.2426 14.7279C13.8033 15.1673 13.1224 15.1986 12.7217 14.798L10 12.0763L7.27828 14.798C6.87764 15.1986 6.1967 15.1673 5.75736 14.7279C5.31802 14.2886 5.28665 13.6076 5.68729 13.207L8.40901 10.4853L5.68729 7.76356C5.28665 7.36292 5.31802 6.68198 5.75736 6.24264C6.1967 5.8033 6.87764 5.77193 7.27828 6.17257L10 8.89429L12.7217 6.17257C13.1224 5.77193 13.8033 5.8033 14.2426 6.24264C14.682 6.68198 14.7134 7.36292 14.3127 7.76356L11.591 10.4853Z" fill="#FE5D5D"/>
</svg>
